<svg width="1280" height="720" viewBox="0 0 1280 720" fill="none" xmlns="http://www.w3.org/2000/svg">
  <rect width="1280" height="720" fill="#111827"/>
  <rect x="56" y="56" width="1168" height="608" rx="28" fill="#0F172A" stroke="#334155" stroke-width="2"/>
  <circle cx="108" cy="103" r="10" fill="#EF4444"/>
  <circle cx="140" cy="103" r="10" fill="#F59E0B"/>
  <circle cx="172" cy="103" r="10" fill="#22C55E"/>
  <text x="214" y="110" fill="#94A3B8" font-family="Consolas, 'Courier New', monospace" font-size="26">WordGuess terminal preview</text>

  <text x="98" y="174" fill="#E2E8F0" font-family="Consolas, 'Courier New', monospace" font-size="40" font-weight="700">WORDLE 1791</text>
  <text x="98" y="214" fill="#38BDF8" font-family="Consolas, 'Courier New', monospace" font-size="24">Enter guess (1/6):</text>

  <rect x="98" y="260" width="88" height="88" rx="14" fill="#84CC16"/>
  <rect x="202" y="260" width="88" height="88" rx="14" fill="#FACC15"/>
  <rect x="306" y="260" width="88" height="88" rx="14" fill="#334155"/>
  <rect x="410" y="260" width="88" height="88" rx="14" fill="#84CC16"/>
  <rect x="514" y="260" width="88" height="88" rx="14" fill="#334155"/>

  <text x="124" y="316" fill="#0F172A" font-family="Consolas, 'Courier New', monospace" font-size="40" font-weight="700">P</text>
  <text x="227" y="316" fill="#0F172A" font-family="Consolas, 'Courier New', monospace" font-size="40" font-weight="700">A</text>
  <text x="332" y="316" fill="#E2E8F0" font-family="Consolas, 'Courier New', monospace" font-size="40" font-weight="700">U</text>
  <text x="436" y="316" fill="#0F172A" font-family="Consolas, 'Courier New', monospace" font-size="40" font-weight="700">S</text>
  <text x="540" y="316" fill="#E2E8F0" font-family="Consolas, 'Courier New', monospace" font-size="40" font-weight="700">E</text>

  <rect x="98" y="380" width="88" height="88" rx="14" fill="#334155"/>
  <rect x="202" y="380" width="88" height="88" rx="14" fill="#84CC16"/>
  <rect x="306" y="380" width="88" height="88" rx="14" fill="#84CC16"/>
  <rect x="410" y="380" width="88" height="88" rx="14" fill="#334155"/>
  <rect x="514" y="380" width="88" height="88" rx="14" fill="#FACC15"/>

  <text x="124" y="436" fill="#E2E8F0" font-family="Consolas, 'Courier New', monospace" font-size="40" font-weight="700">S</text>
  <text x="228" y="436" fill="#0F172A" font-family="Consolas, 'Courier New', monospace" font-size="40" font-weight="700">T</text>
  <text x="332" y="436" fill="#0F172A" font-family="Consolas, 'Courier New', monospace" font-size="40" font-weight="700">O</text>
  <text x="436" y="436" fill="#E2E8F0" font-family="Consolas, 'Courier New', monospace" font-size="40" font-weight="700">R</text>
  <text x="540" y="436" fill="#0F172A" font-family="Consolas, 'Courier New', monospace" font-size="40" font-weight="700">M</text>

  <text x="714" y="242" fill="#F8FAFC" font-family="Segoe UI, Arial, sans-serif" font-size="34" font-weight="700">Portfolio-ready Java game</text>
  <text x="714" y="286" fill="#94A3B8" font-family="Segoe UI, Arial, sans-serif" font-size="22">CLI gameplay, automated release packaging,</text>
  <text x="714" y="316" fill="#94A3B8" font-family="Segoe UI, Arial, sans-serif" font-size="22">GitHub Actions CI, and downloadable artifacts.</text>

  <rect x="714" y="364" width="424" height="68" rx="16" fill="#1D4ED8"/>
  <text x="745" y="407" fill="#EFF6FF" font-family="Segoe UI, Arial, sans-serif" font-size="28" font-weight="700">Latest release: JAR and ZIP bundle</text>

  <rect x="714" y="458" width="194" height="56" rx="14" fill="#22C55E"/>
  <text x="748" y="494" fill="#052E16" font-family="Segoe UI, Arial, sans-serif" font-size="24" font-weight="700">Java 26</text>

  <rect x="926" y="458" width="212" height="56" rx="14" fill="#F59E0B"/>
  <text x="960" y="494" fill="#431407" font-family="Segoe UI, Arial, sans-serif" font-size="24" font-weight="700">Gradle 9.4</text>

  <text x="714" y="566" fill="#E2E8F0" font-family="Consolas, 'Courier New', monospace" font-size="24">.\gradlew.bat runFixed</text>
  <text x="714" y="604" fill="#94A3B8" font-family="Segoe UI, Arial, sans-serif" font-size="20">Use a fixed puzzle for demos and screenshots.</text>
</svg>
